<?xml version="1.0" encoding="utf-8"?>
<!-- Generator: Adobe Illustrator 27.9.0, SVG Export Plug-In . SVG Version: 6.00 Build 0)  -->
<svg version="1.1" id="Layer_1" xmlns="http://www.w3.org/2000/svg" xmlns:xlink="http://www.w3.org/1999/xlink" x="0px" y="0px"
	 viewBox="0 0 80 80" style="enable-background:new 0 0 80 80;" xml:space="preserve">
<style type="text/css">
	.st0{fill:#8D8F92;}
	.st1{fill:#FF821C;}
	.st2{fill:#FFFFFF;}
</style>
<g>
	<path class="st0" d="M72.1,69.1h0.2c0,0.4,0.2,0.7,0.8,0.7c0.4,0,0.7-0.3,0.7-0.6c0-0.4-0.2-0.5-0.8-0.6c-0.6-0.1-0.9-0.3-0.9-0.7
		c0-0.4,0.4-0.7,0.9-0.7s0.9,0.3,0.9,0.7h-0.2c-0.1-0.4-0.3-0.5-0.7-0.5c-0.4,0-0.7,0.2-0.7,0.5s0.2,0.5,0.7,0.6
		c0.6,0.1,0.9,0.3,0.9,0.8s-0.4,0.8-1,0.8C72.5,69.9,72.2,69.5,72.1,69.1z M74.8,67h0.3l1,2.4l1-2.4h0.3v2.8h-0.2v-2.6l-1.1,2.6H76
		l-1.1-2.6v2.6h-0.2V67H74.8z"/>
	<g>
		<path class="st1" d="M29.4,12l-4.8,26.6H10.1C10.7,26.4,18.5,16.1,29.4,12z M33,47.7L29.4,68c3.3,1.3,6.9,1.9,10.6,1.9
			s7.3-0.7,10.6-1.9l-3.7-20.3H33z M40.1,10.1c-0.1,0-0.1,0-0.2,0s-0.1,0-0.2,0l-5.2,28.5h10.8L40.1,10.1z M20.3,62.5L23,47.7H11.1
			C12.6,53.5,15.9,58.6,20.3,62.5z M50.5,12l9.1,50.5C65.9,57,69.9,49,69.9,40C69.9,27.2,61.8,16.3,50.5,12z"/>
		<path class="st2" d="M40,1.1C18.5,1.1,1.1,18.5,1.1,40S18.5,78.9,40,78.9S78.9,61.5,78.9,40C78.8,18.5,61.4,1.1,40,1.1z
			 M39.8,10.1c0.1,0,0.1,0,0.2,0s0.1,0,0.2,0l5.2,28.5H34.8L39.8,10.1z M20.3,62.5c-4.4-3.9-7.7-9-9.2-14.8H23L20.3,62.5z
			 M10.1,38.6c0.6-12.2,8.4-22.5,19.3-26.6l-4.8,26.6H10.1z M40,69.9c-3.7,0-7.3-0.7-10.6-1.9l3.7-20.3H47L50.7,68
			C47.3,69.2,43.7,69.9,40,69.9z M59.7,62.5L50.5,12c11.3,4.3,19.3,15.2,19.3,28C69.9,49,65.9,57,59.7,62.5z"/>
		<path class="st1" d="M40,0C17.9,0,0,17.9,0,40s17.9,40,40,40s40-17.9,40-40S62.1,0,40,0z M40,78.9C18.5,78.9,1.1,61.5,1.1,40
			S18.5,1.1,40,1.1S78.9,18.5,78.9,40C78.8,61.5,61.4,78.9,40,78.9z"/>
	</g>
</g>
</svg>
